<?xml version="1.0" encoding="UTF-8"?>
<svg width="132.73mm" height="132.96mm" version="1.1" viewBox="0 0 132.73 132.96" xmlns="http://www.w3.org/2000/svg" xmlns:cc="http://creativecommons.org/ns#" xmlns:dc="http://purl.org/dc/elements/1.1/" xmlns:rdf="http://www.w3.org/1999/02/22-rdf-syntax-ns#" xmlns:xlink="http://www.w3.org/1999/xlink">
 <defs>
  <linearGradient id="linearGradient6073" x1="48.584" x2="162.42" y1="100.2" y2="193.37" gradientUnits="userSpaceOnUse">
   <stop stop-color="#3b63fe" offset="0"/>
   <stop stop-color="#3785be" offset="1"/>
  </linearGradient>
  <meshgradient id="meshgradient1384" x="94.595779" y="108.63262" gradientUnits="userSpaceOnUse">
   <meshrow>
    <meshpatch>
     <stop stop-color="#fff" path="c 20.8922,0  41.7844,0  62.6766,0"/>
     <stop stop-color="#35ffff" path="c 0,30.3605  0,60.721  0,91.0815"/>
     <stop stop-color="#fff" path="c -20.8922,0  -41.7844,0  -62.6766,0"/>
     <stop stop-color="#35ffff" path="c 0,-30.3605  0,-60.721  0,-91.0815"/>
    </meshpatch>
   </meshrow>
  </meshgradient>
  <meshgradient id="meshgradient2886" x="45.007812" y="106.30273" gradientUnits="userSpaceOnUse">
   <meshrow>
    <meshpatch>
     <stop stop-color="#fff" path="c 20.3659,0  40.7318,0  61.0977,0"/>
     <stop stop-color="#0ff" path="c 0,30.3776  0,60.7552  0,91.1328"/>
     <stop stop-color="#fff" path="c -20.3659,0  -40.7318,0  -61.0977,0"/>
     <stop stop-color="#0ff" path="c 0,-30.3776  0,-60.7552  0,-91.1328"/>
    </meshpatch>
   </meshrow>
  </meshgradient>
 </defs>
 <metadata>
  <rdf:RDF>
   <cc:Work rdf:about="">
    <dc:format>image/svg+xml</dc:format>
    <dc:type rdf:resource="http://purl.org/dc/dcmitype/StillImage"/>
    <dc:title/>
   </cc:Work>
  </rdf:RDF>
 </metadata>
 <g transform="translate(-39.701 -82.1)">
  <ellipse cx="106.07" cy="148.58" rx="66.367" ry="66.479" fill="url(#linearGradient6073)"/>
  <g stroke="#000">
   <g transform="translate(-1.6453 151.87)" stroke-linejoin="round" stroke-width="2.6194">
    <path d="m109.66-48.53-10.583 5.2917 55.59 9.3922 10.583-5.2917-55.59-9.3922"/>
    <path d="m165.25-39.138-10.583 5.2917c3.0036 1.1368 4.0626 3.119 4.1765 5.5121l10.583-5.2917c-0.31056-1.9976-0.55246-4.0054-4.1765-5.5121"/>
    <path d="m169.43-33.626-10.583 5.2917-0.41641 13.897 10.583-5.2917 0.41641-13.897"/>
    <path d="m169.01-19.728-10.583 5.2917c-0.95793 3.0555-3.6586 2.7708-6.0569 3.0655l10.583-5.2917c5.992-2.273 5.8587-2.0938 6.0569-3.0655"/>
    <path d="m165.84-16.521-8.9411 4.7638-33.685-5.2502 10.583-5.2917 35.217 2.5708c-0.22482 1.4611-1.4378 2.4572-3.1738 3.2072z"/>
    <path d="m133.79-22.299-10.583 5.2917c-1.3514 0.65298-1.3988 1.1935-1.8709 1.8709l10.583-5.2917c0.45642-1.2506 1.1698-1.5379 1.8709-1.8709"/>
    <path d="m131.92-20.428-10.583 5.2917-0.80181 35.547 10.583-5.2917 0.80181-35.547"/>
    <path d="m131.12 15.119-10.583 5.2917c0.31334 1.4602 1.0065 2.6197 2.823 2.8899l10.583-5.2917c-1.2792-0.50574-2.5863-0.97369-2.823-2.8899"/>
    <path d="m133.94 18.008-10.583 5.2917 5.7797 1.186 10.583-5.2917-5.7797-1.186"/>
    <path d="m140.86 19.265c-2.8702 1.8324-6.0039 3.6846-11.717 5.2208 1.1511-0.4722 2.4038-0.77823 2.8898-2.3386l10.583-5.2917c-0.0759 1.2114-0.82954 2.015-1.7559 2.4095"/>
    <path d="m142.61 16.856-10.583 5.2917 0.0501-4.0257 10.583-5.2917-0.0501 4.0257"/>
    <path d="m142.66 12.83-10.583 5.2917c-0.0936-0.97568-0.51722-1.8763-1.9878-2.5391l10.583-5.2917c1.0634 0.1516 1.865 0.75715 1.9878 2.5391"/>
    <path d="m140.68 10.291-10.583 5.2917-4.861-1.1192 10.583-5.2917 4.861 1.1192"/>
    <path d="m135.82 9.1719-10.583 5.2917c-1.2614-0.21925-2.027-1.0719-2.1549-2.7395l10.583-5.2917c0.15501 1.6267 1.0632 2.2992 2.1549 2.7395"/>
    <path d="m133.66 6.4324-10.583 5.2917 0.33409-16.17 10.583-5.2917-0.33409 16.17"/>
    <path d="m134-9.7374-10.583 5.2917c0.30703-0.61895 0.58799-1.241 1.9377-1.7373l10.583-5.2917c-1.2859 0.16579-1.6569 0.32373-1.9377 1.7373"/>
    <path d="m135.93-11.475-10.583 5.2917 28.865 5.312 10.583-5.2917-28.865-5.312"/>
    <path d="m164.8-6.1627-10.583 5.2917c1.5472 0.84455 2.8429 1.96 3.2406 4.0424l10.583-5.2917c-0.1661-2.2616-1.4781-3.3773-3.2406-4.0424"/>
    <path d="m168.04-2.1203-10.583 5.2917-1.1359 41.393 10.583-5.2917 1.1359-41.393"/>
    <path d="m166.9 39.273-10.583 5.2917c0.55571 3.7992-2.6587 3.3409-5.0113 3.107l10.583-5.2917c4.2809-0.33236 4.7114-1.7113 5.0113-3.107"/>
    <path d="m166.38 40.868-11.245 6.6146-56.245-11.304 10.583-5.2917 52.418 11.493"/>
    <path d="m109.47 30.888-10.583 5.2917c-1.259-0.82498-2.6052-1.4846-2.7051-4.5058l10.583-5.2917c-0.1109 2.5896 1.1299 3.7273 2.7051 4.5058"/>
    <path d="m106.77 26.382-10.583 5.2917 0.12021-71.297 10.583-5.2917-0.12021 71.297"/>
    <path d="m106.89-44.916-10.583 5.2917c0.15993-1.2621 0.16936-2.5354 2.7732-3.6142l10.583-5.2917c-1.2043 0.74488-2.4278 1.4582-2.7732 3.6142"/>
    <path d="m109.66-48.53-10.583 5.2917 10.583-5.2917"/>
    <path d="m109.66-48.53-10.583 5.2917 10.583-5.2917"/>
   </g>
   <path d="m108.07 103.34 55.59 9.3922c2.7479 0.3806 4.369 3.3362 4.1765 5.5121l0.022 13.307c-0.11598 2.184-2.731 4.5469-6.4952 3.6561l-29.16-5.6363c-1.7369-0.0722-1.8878 0.84688-1.8709 1.8709l-0.80181 35.547c0.21917 1.726 1.4835 2.6206 2.823 2.8899l5.7797 1.186c2.0914-2e-3 2.7959-0.96022 2.8898-2.3386l0.0501-4.0257c-0.32288-0.99429-0.86624-2.2991-1.9878-2.5391l-4.861-1.1192c-1.525-0.29627-2.143-1.2861-2.1549-2.7395l0.33409-16.17c0.012-1.3042 0.50093-1.7688 1.9377-1.7372l28.865 5.312c1.5332 1.1036 2.8546 2.3212 3.2406 4.0424l-1.1359 41.393c-0.017 1.8978-1.2589 3.88-5.0113 3.107l-52.418-11.493c-1.659-0.40983-2.7497-2.4703-2.7051-4.5058l0.12021-71.297c0.0497-1.6793 0.66893-3.3144 2.7732-3.6142z" stroke-width=".26458"/>
   <path d="m97.491 108.63 55.59 9.3922c2.7479 0.3806 4.369 3.3362 4.1765 5.5121l-0.41641 13.897c-0.11598 2.184-2.2926 3.9563-6.0569 3.0655l-29.16-5.6363c-1.7369-0.0722-1.8878 0.84688-1.8709 1.8709l-0.80181 35.547c0.21917 1.726 1.4835 2.6206 2.823 2.8898l5.7797 1.186c2.0914-2e-3 2.7959-0.96022 2.8898-2.3386l0.0501-4.0257c-0.32288-0.99429-0.86623-2.2991-1.9878-2.5391l-4.9187-1.1192c-1.525-0.29627-2.2523-1.9543-2.2641-3.4077l0.4009-13.998c0.012-1.3042 1.6034-3.1385 3.0402-3.107l27.863 5.1784c3.2203 0.81959 3.2221 2.8891 3.2239 4.6104l-1.1192 40.825c-0.017 1.8978-1.2589 3.88-5.0113 3.107l-52.418-11.493c-1.659-0.40983-2.7497-2.4703-2.7051-4.5058l0.12021-71.297c0.04973-1.6793 0.66892-3.3144 2.7732-3.6142z" fill="url(#meshgradient1384)" stroke-width="2.6194"/>
  </g>
  <g>
   <path transform="matrix(1.0688 0 0 .99631 1.6661 -2.8253)" d="m48.375 106.3c-1.884 0.12694-3.184 1.0917-3.3672 2.7305l2.9961 70.723c-0.04281 2.7686 1.1286 4.8819 3.8457 5.959l50.18 11.66c1.4845 0.39864 3.6543-1.2181 3.8086-3.4746l-0.20312-12.635c-0.11003-1.6229-1.0743-3.692-4.127-4.4824l-28.008-5.9336c-0.973-0.31847-1.698-0.95882-1.793-2.4062l-0.78516-33.621c0.01759-2.9339 1.7841-2.323 3.5234-2.0586l27.225 5.1484c1.9332-0.15408 3.9738-0.65237 4.3027-3.9473l0.13281-13.631c-0.36724-2.6929-1.7664-4.3224-4.2754-4.8105z" fill-opacity=".57706"/>
   <path transform="translate(6.8792 -2.6458)" d="m48.375 106.3c-1.884 0.12694-3.184 1.0917-3.3672 2.7305l2.9961 70.723c-0.04281 2.7686 1.1286 4.8819 3.8457 5.959l50.18 11.66c1.4845 0.39864 3.6543-1.2181 3.8086-3.4746l-0.20312-12.635c-0.11003-1.6229-1.0743-3.692-4.127-4.4824l-28.008-5.9336c-0.973-0.31847-1.698-0.95882-1.793-2.4062l-0.78516-33.621c0.01759-2.9339 1.7841-2.323 3.5234-2.0586l27.225 5.1484c1.9332-0.15408 3.9738-0.65237 4.3027-3.9473l0.13281-13.631c-0.36724-2.6929-1.7664-4.3224-4.2754-4.8105z" stroke="#000" stroke-width="2.6194"/>
   <g transform="translate(-3.7042 140.23)" stroke="#00001e" stroke-linejoin="round" stroke-width="2.6194">
    <path d="m58.958-36.572-10.583 5.2917c-1.0171 0.36461-2.5654 1.0464-3.3672 2.7305l10.583-5.2917 3.3672-2.7305"/>
    <path d="m55.591-33.842-10.583 5.2917 2.9961 70.723 10.583-5.2917-2.9961-70.723"/>
    <path d="m58.587 36.881-10.583 5.2917c0.19184 2.7712 1.4268 4.7913 3.8457 5.959l10.583-5.2917c-1.7743-1.576-3.6285-3.0854-3.8457-5.959"/>
    <path d="m62.433 42.84-10.583 5.2917 50.18 11.66 10.583-5.2917-50.18-11.66"/>
    <path d="m103.85 59.577 1.7813-15.895 10.583-5.2917 0.20312 12.635c-0.40695 4.4015-7.3473 5.8172-12.568 8.5517z"/>
    <path d="m116.22 38.391-10.583 5.2917c-0.45623-2.5103-1.9808-3.8399-4.127-4.4824l10.583-5.2917c2.7122 0.5395 3.5705 2.4032 4.127 4.4824"/>
    <path d="m112.09 33.908-10.583 5.2917-28.008-5.9336 10.583-5.2917 28.008 5.9336"/>
    <path d="m84.083 27.975-10.583 5.2917c-1.0554-0.4148-1.554-1.3006-1.793-2.4062l10.583-5.2917c0.17622 1.0128 0.61425 1.8947 1.793 2.4062"/>
    <path d="m82.29 25.568-10.583 5.2917-0.78516-33.621 10.583-5.2917 0.78516 33.621"/>
    <path d="m81.505-8.0528-10.583 5.2917 3.5234-2.0586 10.583-5.2917-3.5234 2.0586"/>
    <path d="m85.029-10.111-10.583 5.2917 27.225 5.1484 10.583-5.2917-27.225-5.1484"/>
    <path d="m113.17-4.4432-11.505 4.772c1.5135-0.65016 3.0894-0.77581 4.3027-3.9473l10.583-5.2917c-0.14988 1.5519-0.28633 3.751-3.3814 4.467"/>
    <path d="m116.56-8.9102-10.583 5.2917 0.13281-13.631 10.583-5.2917-0.13281 13.631"/>
    <path d="m116.69-22.541-10.583 5.2917c-0.47717-2.8675-2.3109-3.9262-4.2754-4.8105l10.583-5.2917c2.5452 0.54931 3.8711 2.2463 4.2754 4.8105"/>
    <path d="m112.41-27.352-10.583 5.2917-53.455-9.2207 10.583-5.2917 53.455 9.2207"/>
    <path d="m58.958-36.572-10.583 5.2917-1.5368 0.33409c4.04-1.8753 10.067-5.7374 12.12-5.6258"/>
   </g>
  </g>
  <path transform="translate(-3.7042 2.6458)" d="m48.375 106.3c-1.884 0.12694-3.184 1.0917-3.3672 2.7305l2.9961 70.723c-0.04281 2.7686 1.1286 4.8819 3.8457 5.959l50.18 11.66c1.4845 0.39864 3.6543-1.2181 3.8086-3.4746l-0.20312-12.635c-0.11003-1.6229-1.0743-3.692-4.127-4.4824l-28.008-5.9336c-0.973-0.31847-1.698-0.95882-1.793-2.4062l-0.78516-33.621c0.01759-2.9339 1.7841-2.323 3.5234-2.0586l27.225 5.1484c1.9332-0.15408 3.9738-0.65237 4.3027-3.9473l0.13281-13.631c-0.36724-2.6929-1.7664-4.3224-4.2754-4.8105z" fill="url(#meshgradient2886)" stroke="#000" stroke-width="2.6194"/>
 </g>
</svg>
