/* XPM */
const static char * GsFont_xpm[] = {
"128 128 39 1",
" 	c None",
".	c #000000",
"+	c #D2D2D2",
"@	c #A8A8A8",
"#	c #7E7E7E",
"$	c #545454",
"%	c #2A2A2A",
"&	c #A80000",
"*	c #470000",
"=	c #FCFCFC",
"-	c #D8D8D8",
";	c #B4B4B4",
">	c #54FCFC",
",	c #54C4FC",
"'	c #548CFC",
")	c #1C1CC4",
"!	c #3838E0",
"~	c #0000A8",
"{	c #909090",
"]	c #6C6C6C",
"^	c #5454FC",
"/	c #484848",
"(	c #242424",
"_	c #700000",
":	c #FC5454",
"<	c #FCFC54",
"[	c #54A8FC",
"}	c #547EFC",
"|	c #54D2FC",
"1	c #A85400",
"2	c #00A800",
"3	c #54FC54",
"4	c #A800A8",
"5	c #FC54FC",
"6	c #A8D3FD",
"7	c #A8BEFD",
"8	c #A8A8FD",
"9	c #A8E8FD",
"0	c #A8FDFD",
"................................. +@#$%.. +@#$%.. ....%.......... ....%.  ....    ....    ....    ....    ....    ....     &*   ",
"..........==-;.==========.==-;... +@#$%.. +@#$%...==-;.==========.==-;.. .>>,'.  .>>>>.  .',>>.  .)!',.  .~~)!.  .,'!).   &&&*  ",
".........==-;{].++++++++.==-;{].. +@#$%.. +@#$%..==-;{].++++++++.==-;{]..>>,'^!..,,,,,,..!^',>>..~)!',>..~~)!^'..>,'!)~. &&&&&* ",
".........=-;{]/.@@@@@@@@.=-;{]/.. +@#$%.. +@#$%..=-;{]/.@@@@@@@@.=-;{]/..>,'^!)..''''''..)!^',>..~)!',>..~)!^',..>,'!)~.&&&&&&&*",
".........-;{]/(.########.-;{]/(.. +@#$%.. +@#$%..-;{]/(.########.-;{]/(..,'^!)~..!!!!!!..~)!^',..~)!',>..)!^',>..>,'!)~.   &*   ",
".........;{]/((.$$$$$$$$.;{]/((.. +@#$%.. +@#$%..;{]/((.$$$$$$$$.;{]/((..'^!)~~..))))))..~~)!^'..~)!',>..!^',>>..>,'!)~.   &*   ",
"..........]/((.%%%%%%%%%%.]/((... +@#$%.. +@#$%...]/((.%%%%%%%%%%.]/((.. .!)~~.  .~~~~.  .~~)!.  .)!',.  .',>>.  .,'!).    &*   ",
"......... ....%.......... ....%.. +@#$%.. +@#$%.........................  ....    ....    ....    ....    ....    ....          ",
"  &&&&&.    .                              _    &&&&&.  .........................:<:.&     .:<:..:<:.&             .:<:.&*    &*",
"   &&&&.    &.   &.        &*        &.   &_    &&&&.   .::::::::::::::::::::::..:<:.&     .:<:..:<:.&             .:<:. &*  &* ",
"    &&&.    &&.  &&.   .   &*   .   &&.  &&_    &&&.    .:<<<<<<<<<<<<<<<<<<<<:..:<:.&     .:<:..:<:.&             .:<:.  &*&*  ",
"   &&.&. &&&&&&.  &&. &.   &*   &. &&.  &&&&&&_ &&&&.   .:<::::::::::::::::::<:..:<:.&     .:<:..:<:................:<:.   &*   ",
"  &&. &. &&&&&&.   &&&&.&&&&&&&*&&&&.   &&&&&&_ &. &&.  .:<:................:<:..:<:.&     .:<:..:<::::::::::::::::::<:.  &*&*  ",
" &&.   .    &&.     &&&. &&&&&* &&&.     &&_    .   &&. .:<:.&&&&&&&&&&&&&&.:<:..:<:.&     .:<:..:<<<<<<<<<<<<<<<<<<<<:. &*  &* ",
" &.         &.     &&&&.  &&&*  &&&&.     &_         &. .:<:.&             .:<:..:<:.&     .:<:..::::::::::::::::::::::.&*    &*",
"            .     &&&&&.   &*   &&&&&.     _            .:<:.&             .:<:..:<:.&     .:<:.........................        ",
"                                                                                                                                ",
"          ...    ..  ..   .. ..    ..   ..   ..   ....    ..        ...  ...     ..  ..    ..                                .. ",
"          ...    ..  ..  .......  ....  ..  ..    .  .    ..       ..      ..     ....     ..                               ..  ",
"          ...    ..  ..   .. ..  ....      ..      ..    ..       ..        ..   ......  ......          .....             ..   ",
"          ..             .......   ....   ..      .... .          ..        ..    ....     ..                             ..    ",
"                          .. ..   ....   ..  ..  ..  ..            ..      ..    ..  ..    ..      ..              ..    ..     ",
"          ..                       ..   ..   ..   .... .            ...  ...                       ..              ..           ",
"                                                                                                  ..                            ",
"                                                                                                                                ",
"  ....     ..     ....   .....   ..  ..  ......   .....  ......   ....    ....                      ..            ..      ....  ",
" ..  ..   ...    ..  ..      ..  ..  ..  ..      ..          ..  ..  ..  ..  ..   ..      ..       ..    .....     ..    ..  .. ",
" ..  ..    ..        ..   ....   ..  ..  .....   .....      ..    ....   ..  ..                   ..                ..      ..  ",
" ..  ..    ..     ....       ..  ......      ..  ..  ..    ..    ..  ..   .....                   ..     .....      ..     ..   ",
" ..  ..    ..    ..          ..      ..      ..  ..  ..   ..     ..  ..      ..   ..      ..       ..              ..           ",
"  ....    ....   ......  .....       ..  .....    ....    ..      ....    ....            ..        ..            ..       ..   ",
"                                                                                         ..                                     ",
"  ....                                                                                                                          ",
" .    .   ....   .....    .....  ....    ......  ......   .....  ..  ..   ....       ..  ..  ..  ..      .    .  ..  ..   ....  ",
".  .. .  ..  ..  ..  ..  ..      .. ..   ..      ..      ..      ..  ..    ..        ..  .. ..   ..      ..  ..  ... ..  ..  .. ",
". . . .  ..  ..  .....   ..      ..  ..  .....   .....   .. ...  ......    ..        ..  ....    ..      ......  ......  ..  .. ",
". . . .  ......  ..  ..  ..      ..  ..  ..      ..      ..  ..  ..  ..    ..    ..  ..  ....    ..      ......  .. ...  ..  .. ",
".  . .   ..  ..  ..  ..  ..      .. ..   ..      ..      ..  ..  ..  ..    ..    ..  ..  .. ..   ..      ..  ..  ..  ..  ..  .. ",
" .     . ..  ..  .....    .....  ....    ......  ..       .....  ..  ..   ....    ....   ..  ..  ......  ..  ..  ..  ..   ....  ",
"  .....                                                                                                                         ",
"                                                                                                                                ",
" .....    ....   .....    .....  ......  ..  ..  ..  ..  ..  ..  ..  ..  ..  ..  ......   ....            ....     ..           ",
" ..  ..  ..  ..  ..  ..  ..        ..    ..  ..  ..  ..  ..  ..   ....   ..  ..     ..    ..     ..         ..    ....          ",
" ..  ..  ..  ..  ..  ..   ....     ..    ..  ..  ..  ..  ......    ..     ....     ..     ..      ..        ..   ..  ..         ",
" .....   ... ..  .....       ..    ..    ..  ..  ..  ..  ......   ....     ..     ..      ..       ..       ..                  ",
" ..      .. ...  .. ..       ..    ..    ..  ..   ....   ..  ..  ..  ..    ..    ..       ..        ..      ..                  ",
" ..       ....   ..  ..   ....     ..     ....     ..    .    .  ..  ..    ..    ......   ....       ..   ....                  ",
"             ..                                                                                                         ........",
"  ..                                                                                                                            ",
"  ..             ..                 ..             ...           ..        ..            ..        ..                           ",
"   ..     .....  ..       .....     ..    ....    .. ..    ....  ..                 ..   ..        ..    . . .   ..  .    ....  ",
"         ..  ..  .....   ..       ....   ..  ..   ..      .. ..  .. ..     ..            .. ..     ..    ......  .. ...  ..  .. ",
"         ..  ..  ..  ..  ..      .. ..   ......  ....      ....  ... ..    ..       ..   ....      ..    ......  ......  ..  .. ",
"         ..  ..  ..  ..  ..      .. ..   ..       ..         ..  ..  ..    ..       ..   ....      ..    ..  ..  ..  ..  ..  .. ",
"          ... .  .....    .....   ... .   ....    ..      .. ..  ..  ..    ..    .. ..   .. ..     ..    ..  ..  ..  ..   ....  ",
"                                                           ...                    ...                                           ",
"                                                                                                   ..                   .....   ",
"                                   ..                                                       ..     ..     ..      ..  . ..[}^.  ",
" .. ..    ....   .. ..    .....    ..    .. ..   ..  ..  ..  ..  ..  ..  ..  ..  ......    ..      ..      ..    . ...  ..|[}^. ",
" ... ..  .. ..   ... ..  ..       ....   .. ..   ..  ..  ......   ....   ..  ..     ..    ...      ..      ...          ..>|[}^.",
" ..  ..  .. ..   ..  ..   ....     ..    .. ..   ..  ..  ......    ..     ....     ..     ...      ..      ...          ..>|[}^.",
" .....    ....   ..          ..    ..    .. ..    ....   ..  ..   ....     ..     ..       ..      ..      ..           ..|[}^. ",
" ..         ...  ..      .....      ..    ... .    ..    .    .  ..  ..   ..     ......     ..     ..     ..            ..[}^.  ",
" ..         ..                                                           ..                        ..                   .....   ",
"&*    &*.....     .11<<::<<1::.      ......      .::::::::::&&.   ............    .       ::$.   .............  .1111111@@@&&@@@",
" &*  &* 11111.     .111::<11:1.    ..::::&&..     .::::::::&&.     .@=====@$.     .       :=$.  .111111111111.1 .1111111@@&&&&@@",
"  &*&*  11<<1.      ..11<<<<<<1.  .::::::::&&.     ..::::&&..     .@=======@$.    .:::::   ^$.  .=1=1=1==1==@.<..1111111@&&&&&&@",
"   &*   <:&<1.        ..11<11<1. .::==::::::&&.      ..==$.       .^^^^^=^^=$.    .:::::  ^^$.  .=1==1@=1@1=1.<..1111111&&&&&&&&",
"  &*&*  :::&1.          .111<1<. .:==:::::::&&.       .==$.       .^^^^^=^=^$.    .:::::   ^$.  .==1==@=1@1=1.<.........@@@&&@@@",
" &*  &* 1:&<<1.          ..111<..::::::::::::&&.      .==$.       .^^^^^=^^=$.    .:::::   @$.  .=1==1@=1@1=1.<..1<<<<<<@@@&&@@@",
"&*    &*<<<<11.            ..11..::::::::::::&&.      .==$.       .^^^^^=^==$.    .$@     @$$.  .=1==1@=1@1=1.<..1<<<<<<@@@&&@@@",
"        <<1<<1.              ... .::::::::::&&.       .....       .========:$.     ..........   .111111111111.<.=.......@@@&&@@@",
"11111.<.   ..     ..    @@@&&@@@.11.  ....1.11<.&&&&&&@@    .<2$2<.=======.31 $$$ 13.======::&   ......=====11===1111111=======1",
"11111.<.  .11.   .11.   @@@&&@@@.<11..1<<11.1.. &&&&&@@@   .<<2$2<<.=======.3     3.======:=::&   .==.=====111==11@1@1@1=::::::&",
"11111.<.  .<11...11<.   @@@&&@@@ ..1.1<<<<11.   &&&&@@@@  .<<<2$2<<<.=====.445555544.====:=::::& .^^==.==111<<1=11@1@1@1=::::::&",
"11111.<.   ..==1=...    @@@&&@@@   .11<<<<<1.   &&&&&@@@  .<<11111<<.=====.=.55555.=.====::::::& .^^==.=11<<&<1=11111111=::::::&",
"......<.    .=.1.=.     &&&&&&&& ...1<<<<<<1... &&@&&&@@ .<<1=====1<<.===...=^^^^^=...====::::&  .===^.=11&<<<<111111111=::::::&",
"<<<<<1<.    .111111.    @&&&&&&@.111.<<<<<<1.11.&@@@&&&@ .<1=^=@=^=1<.===.=:.^^.^^..==.====::&   .::==.===11<&<111111111=::::::&",
"<<<<<<1.    .11...1. .. @@&&&&@@.<<1..<<<<..11<.@@@@@&&& .21===@===12.==.===:&=.=:::&==.===@$@   .::=:.=====11<<1<<<<<<==::::::&",
"........ ..  .11.1.=.11.@@@&&@@@ ...  ....  ... @@@@@@&& .31=$===$=13.==.@@@@@@.@@@@@@@.===@$@    ....========11=11111111&&&&&&&",
"                                                                                                                                ",
"          ###    ##  ##   ## ##    ##   ##   ##   ####    ##        ###  ###     ##  ##    ##                                ## ",
"          ###    ##  ##  #######  ####  ##  ##    #  #    ##       ##      ##     ####     ##                               ##  ",
"          ###    ##  ##   ## ##  ####      ##      ##    ##       ##        ##   ######  ######          #####             ##   ",
"          ##             #######   ####   ##      #### #          ##        ##    ####     ##                             ##    ",
"                          ## ##   ####   ##  ##  ##  ##            ##      ##    ##  ##    ##      ##              ##    ##     ",
"          ##                       ##   ##   ##   #### #            ###  ###                       ##              ##           ",
"                                                                                                  ##                            ",
"                                                                                                                                ",
"  ####     ##     ####   #####   ##  ##  ######   #####  ######   ####    ####                      ##            ##      ####  ",
" ##  ##   ###    ##  ##      ##  ##  ##  ##      ##          ##  ##  ##  ##  ##   ##      ##       ##    #####     ##    ##  ## ",
" ##  ##    ##        ##   ####   ##  ##  #####   #####      ##    ####   ##  ##                   ##                ##      ##  ",
" ##  ##    ##     ####       ##  ######      ##  ##  ##    ##    ##  ##   #####                   ##     #####      ##     ##   ",
" ##  ##    ##    ##          ##      ##      ##  ##  ##   ##     ##  ##      ##   ##      ##       ##              ##           ",
"  ####    ####   ######  #####       ##  #####    ####    ##      ####    ####            ##        ##            ##       ##   ",
"                                                                                         ##                                     ",
"  ####                                                                                                                          ",
" #    #   ####   #####    #####  ####    ######  ######   #####  ##  ##   ####       ##  ##  ##  ##      #    #  ##  ##   ####  ",
"#  ## #  ##  ##  ##  ##  ##      ## ##   ##      ##      ##      ##  ##    ##        ##  ## ##   ##      ##  ##  ### ##  ##  ## ",
"# # # #  ##  ##  #####   ##      ##  ##  #####   #####   ## ###  ######    ##        ##  ####    ##      ######  ######  ##  ## ",
"# # # #  ######  ##  ##  ##      ##  ##  ##      ##      ##  ##  ##  ##    ##    ##  ##  ####    ##      ######  ## ###  ##  ## ",
"#  # #   ##  ##  ##  ##  ##      ## ##   ##      ##      ##  ##  ##  ##    ##    ##  ##  ## ##   ##      ##  ##  ##  ##  ##  ## ",
" #     # ##  ##  #####    #####  ####    ######  ##       #####  ##  ##   ####    ####   ##  ##  ######  ##  ##  ##  ##   ####  ",
"  #####                                                                                                                         ",
"                                                                                                                                ",
" #####    ####   #####    #####  ######  ##  ##  ##  ##  ##  ##  ##  ##  ##  ##  ######   ####            ####     ##           ",
" ##  ##  ##  ##  ##  ##  ##        ##    ##  ##  ##  ##  ##  ##   ####   ##  ##     ##    ##     ##         ##    ####          ",
" ##  ##  ##  ##  ##  ##   ####     ##    ##  ##  ##  ##  ######    ##     ####     ##     ##      ##        ##   ##  ##         ",
" #####   ### ##  #####       ##    ##    ##  ##  ##  ##  ######   ####     ##     ##      ##       ##       ##                  ",
" ##      ## ###  ## ##       ##    ##    ##  ##   ####   ##  ##  ##  ##    ##    ##       ##        ##      ##                  ",
" ##       ####   ##  ##   ####     ##     ####     ##    #    #  ##  ##    ##    ######   ####       ##   ####                  ",
"             ##                                                                                                         ########",
"  ##                                                                                                                            ",
"  ##             ##                 ##             ###           ##        ##            ##        ##                           ",
"   ##     #####  ##       #####     ##    ####    ## ##    ####  ##                 ##   ##        ##    # # #   ##  #    ####  ",
"         ##  ##  #####   ##       ####   ##  ##   ##      ## ##  ## ##     ##            ## ##     ##    ######  ## ###  ##  ## ",
"         ##  ##  ##  ##  ##      ## ##   ######  ####      ####  ### ##    ##       ##   ####      ##    ######  ######  ##  ## ",
"         ##  ##  ##  ##  ##      ## ##   ##       ##         ##  ##  ##    ##       ##   ####      ##    ##  ##  ##  ##  ##  ## ",
"          ### #  #####    #####   ### #   ####    ##      ## ##  ##  ##    ##    ## ##   ## ##     ##    ##  ##  ##  ##   ####  ",
"                                                           ###                    ###                                           ",
"                                                                                                   ##                   #####   ",
"                                   ##                                                       ##     ##     ##      ##  # ##678#  ",
" ## ##    ####   ## ##    #####    ##    ## ##   ##  ##  ##  ##  ##  ##  ##  ##  ######    ##      ##      ##    # ###  ##9678# ",
" ### ##  ## ##   ### ##  ##       ####   ## ##   ##  ##  ######   ####   ##  ##     ##    ###      ##      ###          ##09678#",
" ##  ##  ## ##   ##  ##   ####     ##    ## ##   ##  ##  ######    ##     ####     ##     ###      ##      ###          ##09678#",
" #####    ####   ##          ##    ##    ## ##    ####   ##  ##   ####     ##     ##       ##      ##      ##           ##9678# ",
" ##         ###  ##      #####      ##    ### #    ##    #    #  ##  ##   ##     ######     ##     ##     ##            ##678#  ",
" ##         ##                                                           ##                        ##                   #####   "};
