/* XPM */
const static char * alternatefont_xpm[] = {
"128 128 67 1",
" 	c None",
".	c #010101",
"+	c #000000",
"@	c #FCFCFC",
"#	c #7F7F7F",
"$	c #D2D2D2",
"%	c #FCC454",
"&	c #C4FC54",
"*	c #54C4FC",
"=	c #A8A8A8",
"-	c #FC8C54",
";	c #8CFC54",
">	c #548CFC",
",	c #7E7E7E",
"'	c #E03838",
")	c #38E038",
"!	c #3838E0",
"~	c #545454",
"{	c #C41C1C",
"]	c #1CC41C",
"^	c #1C1CC4",
"/	c #2A2A2A",
"(	c #FF00FF",
"_	c #00FFFF",
":	c #FFFF00",
"<	c #00FF00",
"[	c #BCB7AD",
"}	c #D0CBC0",
"|	c #DFDACD",
"1	c #F6F0E2",
"2	c #B1ACA3",
"3	c #45423F",
"4	c #2B2A28",
"5	c #FCFCA8",
"6	c #80805F",
"7	c #818150",
"8	c #FCFCC4",
"9	c #FFF9EA",
"0	c #B4AFA6",
"a	c #ABA69D",
"b	c #648523",
"c	c #856423",
"d	c #F1EBDE",
"e	c #448523",
"f	c #854423",
"g	c #157715",
"h	c #771515",
"i	c #076907",
"j	c #690707",
"k	c #8C1C1C",
"l	c #0B2C0B",
"m	c #4B0909",
"n	c #1C541C",
"o	c #54A8FC",
"p	c #547EFC",
"q	c #5454FC",
"r	c #54D2FC",
"s	c #54FCFC",
"t	c #A85400",
"u	c #FCFC54",
"v	c #FC5454",
"w	c #A80000",
"x	c #00A800",
"y	c #54FC54",
"z	c #A800A8",
"A	c #FC54FC",
"B	c #FFEA00",
"                                          ....                                                                          ++++++++",
"            ...............................@@...............                                                            +######+",
"           ..$$.%%%%%%%%&&&&&&&&********.$.$$.$.@@@@@@@@.$$..                                                           +######+",
"           .===.--------;;;;;;;;>>>>>>>>.=.==.=.@@@@@@@@.===.                                                           +######+",
"           .,,,.''''''''))))))))!!!!!!!!.,.,,.,.@@@@@@@@.,,,.                                                           +######+",
"           ..~~.{{{{{{{{]]]]]]]]^^^^^^^^.~.~~.~.@@@@@@@@.~~..                                                           +######+",
"            ...............................//...............                                                            +######+",
"                                          ....                                                                          ++++++++",
"................................     ......................      ..............  ..............      ......................     ",
".((((((..______..::::::..<<<<<<.  .......[}|11111111|}[234.     ..5555.@@.6666....7777.@@.8888..     .432[}|11111111|}[.......  ",
".((((((..______..::::::..<<<<<<.  .9.[0a.[}++11+++1+++[234.     .%%%%%.$$.bbbbb..ccccc.$$.&&&&&.     .432[}|++111+11+}[.a0[.9.  ",
".((((((..______..::::::..<<<<<<.  .9.[0a.[+|d+1+111+|}[234.     .-----.==.eeeee..fffff.==.;;;;;.     .432[}+dd+11++1+}[.a0[.9.  ",
".((((((..______..::::::..<<<<<<.  .9.[0a.[+|d+1++11++}[234.     .'''''.,,.ggggg..hhhhh.,,.))))).     .432[}+dd+11+1++}[.a0[.9.  ",
".((((((..______..::::::..<<<<<<.  .9.[0a.[}++11+111+|}[234.     .{{{{{.~~.iiiii..jjjjj.~~.]]]]].     .432[}|++111+11+}[.a0[.9.  ",
".((((((..______..::::::..<<<<<<.  .......[}|11111111|}[234.     ./kkkk.//.llll/../mmmm.//.nnnn/.     .432[}|11111111|}[.......  ",
"................................     ......................      ..............  ..............      ......................     ",
"                                                                                                                                ",
"          +++    ++  ++   ++ ++   .++   ++   ++   ++++    ++        +++  +++     ++  ++    ++                                ++ ",
"          +++    ++  ++  +++++++  ++++  ++  ++    +  +    ++       ++      ++     ++++     ++                               ++  ",
"          +++    ++  ++   ++ ++  ++++      ++      ++    ++       ++        ++   ++++++  ++++++          +++++             ++   ",
"          ++             +++++++   ++++   ++      ++++ +          ++        ++    ++++     ++                             ++    ",
"                          ++ ++   ++++   ++  ++  ++  ++            ++      ++    ++  ++    ++      ++              ++    ++     ",
"          ++                       ++   ++   ++   ++++ +            +++  +++                       ++              ++           ",
"                                                                                                  ++                            ",
"                                                                                                                                ",
"                                                                                                    ++            ++      ++++  ",
"    +       +     +++     +++     +  +    ++++     ++     ++++     ++      ++     ++      ++       ++    +++++     ++    ++  ++ ",
"   + +      +        +       +    +  +    +       +          +    +  +    +  +                    ++                ++      ++  ",
"   + +      +      ++     +++      +++    +++     +++       +      ++      +++                    ++     +++++      ++     ++   ",
"   + +      +     +          +       +       +    +  +     +      +  +       +    ++      ++       ++              ++           ",
"    +       +     ++++    +++        +    +++      ++     +        ++      ++             ++        ++            ++       ++   ",
"                                                                                         ++                                     ",
"  ++++                                                                                                                          ",
" +    +   ++++   +++++    +++++  ++++    ++++++  ++++++   +++++  ++  ++   ++++       ++  ++  ++  ++      +    +  ++  ++   ++++  ",
"+  ++ +  ++  ++  ++  ++  ++      ++ ++   ++      ++      ++      ++  ++    ++        ++  ++ ++   ++      ++  ++  +++ ++  ++  ++ ",
"+ + + +  ++  ++  +++++   ++      ++  ++  +++++   +++++   ++ +++  ++++++    ++        ++  ++++    ++      ++++++  ++++++  ++  ++ ",
"+ + + +  ++++++  ++  ++  ++      ++  ++  ++      ++      ++  ++  ++  ++    ++    ++  ++  ++++    ++      ++++++  ++ +++  ++  ++ ",
"+  + +   ++  ++  ++  ++  ++      ++ ++   ++      ++      ++  ++  ++  ++    ++    ++  ++  ++ ++   ++      ++  ++  ++  ++  ++  ++ ",
" +     + ++  ++  +++++    +++++  ++++    ++++++  ++       +++++  ++  ++   ++++    ++++   ++  ++  ++++++  ++  ++  ++  ++   ++++  ",
"  +++++                                                                                                                         ",
"                                                                                                                                ",
" +++++    ++++   +++++    +++++  ++++++  ++  ++  ++  ++  ++  ++  ++  ++  ++  ++  ++++++   ++++            ++++     ++           ",
" ++  ++  ++  ++  ++  ++  ++        ++    ++  ++  ++  ++  ++  ++   ++++   ++  ++     ++    ++     ++         ++    ++++          ",
" ++  ++  ++  ++  ++  ++   ++++     ++    ++  ++  ++  ++  ++++++    ++     ++++     ++     ++      ++        ++   ++  ++         ",
" +++++   +++ ++  +++++       ++    ++    ++  ++  ++  ++  ++++++   ++++     ++     ++      ++       ++       ++                  ",
" ++      ++ +++  ++ ++       ++    ++    ++  ++   ++++   ++  ++  ++  ++    ++    ++       ++        ++      ++                  ",
" ++       ++++   ++  ++   ++++     ++     ++++     ++    +    +  ++  ++    ++    ++++++   ++++       ++   ++++                  ",
"             ++                                                                                                         ++++++++",
"  ++                                                                                                                            ",
"  ++             ++                 ++             +++           ++        ++            ++        ++                           ",
"   ++     +++++  ++       +++++     ++    ++++    ++ ++    ++++  ++                 ++   ++        ++    + + +   ++  +    ++++  ",
"         ++  ++  +++++   ++       ++++   ++  ++   ++      ++ ++  ++ ++     ++            ++ ++     ++    ++++++  ++ +++  ++  ++ ",
"         ++  ++  ++  ++  ++      ++ ++   ++++++  ++++      ++++  +++ ++    ++       ++   ++++      ++    ++++++  ++++++  ++  ++ ",
"         ++  ++  ++  ++  ++      ++ ++   ++       ++         ++  ++  ++    ++       ++   ++++      ++    ++  ++  ++  ++  ++  ++ ",
"          +++ +  +++++    +++++   +++ +   ++++    ++      ++ ++  ++  ++    ++    ++ ++   ++ ++     ++    ++  ++  ++  ++   ++++  ",
"                                                           +++                    +++                                           ",
"                                                                                                   ++                   +++++   ",
"                                   ++                                                       ++     ++     ++      ++  + ++opq+  ",
" ++ ++    ++++   ++ ++    +++++    ++    ++ ++   ++  ++  ++  ++  ++  ++  ++  ++  ++++++    ++      ++      ++    + +++  ++ropq+ ",
" +++ ++  ++ ++   +++ ++  ++       ++++   ++ ++   ++  ++  ++++++   ++++   ++  ++     ++    +++      ++      +++          ++sropq+",
" ++  ++  ++ ++   ++  ++   ++++     ++    ++ ++   ++  ++  ++++++    ++     ++++     ++     +++      ++      +++          ++sropq+",
" +++++    ++++   ++          ++    ++    ++ ++    ++++   ++  ++   ++++     ++     ++       ++      ++      ++           ++ropq+ ",
" ++         +++  ++      +++++      ++    +++ +    ++    +    +  ++  ++   ++     ++++++     ++     ++     ++            ++opq+  ",
" ++         ++                                                           ++                        ++                   +++++   ",
"       ++++++     +ttuuvvuutvv+      ++++++      +vvvvvvvvvvww+   ++++++++++++    +       vv~+   +++++++++++++  +ttttttt===ww===",
"     ++tttttt+     +tttvvuttvt+    ++vvvvww++     +vvvvvvvvww+     +=@@@@@=~+     +       v@~+  +tttttttttttt+t +ttttttt==wwww==",
"   ++tttttuut+      ++ttuuuuuut+  +vvvvvvvvww+     ++vvvvww++     +=@@@@@@@=~+    +vvvvv   q~+  +@t@t@t@@t@@=+u++ttttttt=wwwwww=",
"  ++tttuuvwut+        ++ttuttut+ +vv@@vvvvvvww+      ++@@~+       +qqqqq@qq@~+    +vvvvv  qq~+  +@t@@t=@t=t@t+u++tttttttwwwwwwww",
"++tttutuvvvwt+          +tttutu+ +v@@vvvvvvvww+       +@@~+       +qqqqq@q@q~+    +vvvvv   q~+  +@@t@@=@t=t@t+u+++++++++===ww===",
"+tttuuuutvwuut+          ++tttu++vvvvvvvvvvvvww+      +@@~+       +qqqqq@qq@~+    +vvvvv   =~+  +@t@@t=@t=t@t+u++tuuuuuu===ww===",
"+ttutuuuuuuutt+            ++tt++vvvvvvvvvvvvww+      +@@~+       +qqqqq@q@@~+    +~=     =~~+  +@t@@t=@t=t@t+u++tuuuuuu===ww===",
"@+ttuuutuutuut+              +++@+vvvvvvvvvvww+       +++++       +@@@@@@@@v~+     ++++++++++   +tttttttttttt+u+@+++++++===ww===",
"ttttt+u+@@@++     ++    ===ww===+tt+@@++++t+ttu+wwwwww==    +ux~xu+@@@@@@@+yt ~~~ ty+@@@@@@vvw   ++++++@@@@@tt@@@ttttttt@@@@@@@t",
"ttttt+u+@@+tt+   +tt+   ===ww===+utt++tuutt+t++@wwwww===   +uux~xuu+@@@@@@@+y     y+@@@@@@v@vvw   +@@+@@@@@ttt@@tt=t=t=t@vvvvvvw",
"ttttt+u+@@+utt+++ttu+   ===ww===@++t+tuuuutt+@@@wwww====  +uuux~xuuu+@@@@@+zzAAAAAzz+@@@@v@vvvvw +qq@@+@@tttuut@tt=t=t=t@vvvvvvw",
"ttttt+u+@@@++@@t@+++    ===ww===@@@+ttuuuuut+@@@wwwww===  +uutttttuu+@@@@@+@+AAAAA+@+@@@@vvvvvvw +qq@@+@ttuuwut@tttttttt@vvvvvvw",
"++++++u+@@@@+@+t+@+     wwwwwwww@+++tuuuuuut+++@ww=www== +uut@@@@@tuu+@@@+++@qqqqq@+++@@@@vvvvw  +@@@q+@ttwuuuuttttttttt@vvvvvvw",
"uuuuutu+@@@@+tttttt+    =wwwwww=+ttt+uuuuuut+tt+w===www= +ut@q@=@q@tu+@@@+@v+qq+qq++@@+@@@@vvw   +vv@@+@@@ttuwuttttttttt@vvvvvvw",
"uuuuuut+@@@@+tt+++t+ ++ ==wwww==+uut++uuuu++ttu+=====www +xt@@@=@@@tx+@@+@@@vw@+@vvvw@@+@@@=~=   +vv@v+@@@@@ttuutuuuuuu@@vvvvvvw",
"++++++++@++@@+tt+t+@+tt+===ww===@+++@@++++@@+++@======ww +yt@~@@@~@ty+@@+======+=======+@@@=~=    ++++@@@@@@@@tt@ttttttttwwwwwww",
"================================================================================================================================",
"==========www====ww==ww===ww=ww====ww===ww===ww===wwww====ww========www==www=====ww==ww====ww================================ww=",
"==========www====ww==ww==wwwwwww==wwww==ww==ww====w=ww====ww=======ww======ww=====wwww=====ww===============================ww==",
"==========www====ww==ww===ww=ww==wwww======ww======ww====ww=======ww========ww===wwwwww==wwwwww==========wwwww=============ww===",
"==========ww=============wwwwwww===wwww===ww======wwwwww==========ww========ww====wwww=====ww=============================ww====",
"==========================ww=ww===wwww===ww==ww==ww==ww============ww======ww====ww==ww====ww======ww==============ww====ww=====",
"==========ww=======================ww===ww===ww===wwwwww============www==www=======================ww==============ww===========",
"==================================================================================================ww============================",
"                                                                                        ========================================",
"                                                                                        ============ww============ww======wwww==",
"    B       B     BBB     BBB     B  B    BBBB     BB     BBBB     BB      BB     BB    ==ww=======ww====wwwww=====ww====ww==ww=",
"   B B      B        B       B    B  B    B       B          B    B  B    B  B          ==========ww================ww======ww==",
"   B B      B      BB     BBB      BBB    BBB     BBB       B      BB      BBB          ==========ww=====wwwww======ww=====ww===",
"   B B      B     B          B       B       B    B  B     B      B  B       B    BB    ==ww=======ww==============ww===========",
"    B       B     BBBB    BBB        B    BBB      BB     B        BB      BB           ==ww========ww============ww=======ww===",
"                                                                                        =ww=====================================",
"==wwww==========================================================================================================================",
"=w====w===wwww===wwwww====wwwww==wwww====wwwwww==wwwwww===wwwww==ww==ww===wwww=======ww==ww==ww==ww======w====w==ww==ww===wwww==",
"w==ww=w==ww==ww==ww==ww==ww======ww=ww===ww======ww======ww======ww==ww====ww========ww==ww=ww===ww======ww==ww==www=ww==ww==ww=",
"w=w=w=w==ww==ww==wwwww===ww======ww==ww==wwwww===wwwww===ww=www==wwwwww====ww========ww==wwww====ww======wwwwww==wwwwww==ww==ww=",
"w=w=w=w==wwwwww==ww==ww==ww======ww==ww==ww======ww======ww==ww==ww==ww====ww====ww==ww==wwww====ww======wwwwww==ww=www==ww==ww=",
"w==w=w===ww==ww==ww==ww==ww======ww=ww===ww======ww======ww==ww==ww==ww====ww====ww==ww==ww=ww===ww======ww==ww==ww==ww==ww==ww=",
"=w=====w=ww==ww==wwwww====wwwww==wwww====wwwwww==ww=======wwwww==ww==ww===wwww====wwww===ww==ww==wwwwww==ww==ww==ww==ww===wwww==",
"==wwwww=========================================================================================================================",
"================================================================================================================================",
"=wwwww====wwww===wwwww====wwwww==wwwwww==ww==ww==ww==ww==ww==ww==ww==ww==ww==ww==wwwwww===wwww============wwww=====ww===========",
"=ww==ww==ww==ww==ww==ww==ww========ww====ww==ww==ww==ww==ww==ww===wwww===ww==ww=====ww====ww=====ww=========ww====wwww==========",
"=ww==ww==ww==ww==ww==ww===wwww=====ww====ww==ww==ww==ww==wwwwww====ww=====wwww=====ww=====ww======ww========ww===ww==ww=========",
"=wwwww===www=ww==wwwww=======ww====ww====ww==ww==ww==ww==wwwwww===wwww=====ww=====ww======ww=======ww=======ww==================",
"=ww======ww=www==ww=ww=======ww====ww====ww==ww===wwww===ww==ww==ww==ww====ww====ww=======ww========ww======ww==================",
"=ww=======wwww===ww==ww==wwwww=====ww=====wwww=====ww====w====w==ww==ww====ww====wwwwww===wwww=======ww===wwww==================",
"=============ww=========================================================================================================wwwwwwww",
"==ww============================================================================================================================",
"==ww=============ww=================ww=============www===========ww========ww============ww========ww===========================",
"===ww=====wwwww==ww=======wwwww=====ww====wwww====ww=ww====wwww==ww=================ww===ww========ww====w=w=w===ww==w====wwww==",
"=========ww==ww==wwwww===ww=======wwww===ww==ww===ww======ww=ww==ww=ww=====ww============ww=ww=====ww====wwwwww==ww=www==ww==ww=",
"=========ww==ww==ww==ww==ww======ww=ww===wwwwww==wwww======wwww==www=ww====ww=======ww===wwww======ww====wwwwww==wwwwww==ww==ww=",
"=========ww==ww==ww==ww==ww======ww=ww===ww=======ww=========ww==ww==ww====ww=======ww===wwww======ww====ww==ww==ww==ww==ww==ww=",
"==========www=w==wwwww====wwwww===www=w===wwww====ww======ww=ww==ww==ww====ww====ww=ww===ww=ww=====ww====ww==ww==ww==ww===wwww==",
"===========================================================www====================www===========================================",
"===================================================================================================ww===================wwwww===",
"===================================ww=======================================================ww=====ww=====ww======ww==w=ww@www==",
"=ww=ww====wwww===ww=ww====wwwww====ww====ww=ww===ww==ww==ww==ww==ww==ww==ww==ww==wwwwww====ww======ww======ww====w=www==www@www=",
"=www=ww==ww=ww===www=ww==ww=======wwww===ww=ww===ww==ww==wwwwww===wwww===ww==ww=====ww====www======ww======www===========www@www",
"=ww==ww==ww=ww===ww==ww===wwww=====ww====ww=ww===ww==ww==wwwwww====ww=====wwww=====ww=====www======ww======www===========www@www",
"=wwwww====wwww===ww==========ww====ww====ww=ww====wwww===ww==ww===wwww=====ww=====ww=======ww======ww======ww===========www@www=",
"=ww=========www==ww======wwwww======ww====www=w====ww====w====w==ww==ww===ww=====wwwwww=====ww=====ww=====ww============ww@www==",
"=ww=========ww===========================================================ww========================ww===================wwwww==="};
