/* XPM */
static const char * CGFont_xpm[] = {
"128 128 33 1",
" 	c None",
".	c #000000",
"+	c #D2D2D2",
"@	c #A8A8A8",
"#	c #7E7E7E",
"$	c #545454",
"%	c #2A2A2A",
"&	c #A80000",
"*	c #470000",
"=	c #FCFCFC",
"-	c #D8D8D8",
";	c #B4B4B4",
">	c #54FCFC",
",	c #54C4FC",
"'	c #548CFC",
")	c #1C1CC4",
"!	c #3838E0",
"~	c #0000A8",
"{	c #909090",
"]	c #6C6C6C",
"^	c #5454FC",
"/	c #484848",
"(	c #242424",
"_	c #FC5454",
":	c #FCFC54",
"<	c #54A8FC",
"[	c #547EFC",
"}	c #54D2FC",
"|	c #A85400",
"1	c #00A800",
"2	c #54FC54",
"3	c #A800A8",
"4	c #FC54FC",
"................................. +@#$%.. +@#$%.. ....%.......... ....%.  ....    ....    ....    ....    ....    ....     &*   ",
"..........==-;.==========.==-;... +@#$%.. +@#$%...==-;.==========.==-;.. .>>,'.  .>>>>.  .',>>.  .)!',.  .~~)!.  .,'!).   &&&*  ",
".........==-;{].++++++++.==-;{].. +@#$%.. +@#$%..==-;{].++++++++.==-;{]..>>,'^!..,,,,,,..!^',>>..~)!',>..~~)!^'..>,'!)~. &&&&&* ",
".........=-;{]/.@@@@@@@@.=-;{]/.. +@#$%.. +@#$%..=-;{]/.@@@@@@@@.=-;{]/..>,'^!)..''''''..)!^',>..~)!',>..~)!^',..>,'!)~.&&&&&&&*",
".........-;{]/(.########.-;{]/(.. +@#$%.. +@#$%..-;{]/(.########.-;{]/(..,'^!)~..!!!!!!..~)!^',..~)!',>..)!^',>..>,'!)~.   &*   ",
".........;{]/((.$$$$$$$$.;{]/((.. +@#$%.. +@#$%..;{]/((.$$$$$$$$.;{]/((..'^!)~~..))))))..~~)!^'..~)!',>..!^',>>..>,'!)~.   &*   ",
"..........]/((.%%%%%%%%%%.]/((... +@#$%.. +@#$%...]/((.%%%%%%%%%%.]/((.. .!)~~.  .~~~~.  .~~)!.  .)!',.  .',>>.  .,'!).    &*   ",
"......... ....%.......... ....%.. +@#$%.. +@#$%.........................  ....    ....    ....    ....    ....    ....          ",
"  &&&&&.    .                              .    &&&&&.  ........................._:_.&     ._:_.._:_.&             ._:_.........",
"   &&&&.    &.   &.        &*        &.   &.    &&&&.   .______________________.._:_.&     ._:_.._:_.&             ._:_.........",
"    &&&.    &&.  &&.   .   &*   .   &&.  &&.    &&&.    ._::::::::::::::::::::_.._:_.&     ._:_.._:_.&             ._:_.........",
"   &&.&. &&&&&&.  &&. &.   &*   &. &&.  &&&&&&. &&&&.   ._:__________________:_.._:_.&     ._:_.._:_................_:_.........",
"  &&. &. &&&&&&.   &&&&.&&&&&&&*&&&&.   &&&&&&. &. &&.  ._:_................_:_.._:_.&     ._:_.._:__________________:_.........",
" &&.   .    &&.     &&&. &&&&&* &&&.     &&.    .   &&. ._:_.&&&&&&&&&&&&&&._:_.._:_.&     ._:_.._::::::::::::::::::::_.........",
" &.         &.     &&&&.  &&&*  &&&&.     &.         &. ._:_.&             ._:_.._:_.&     ._:_..______________________.........",
"            .     &&&&&.   &*   &&&&&.     .            ._:_.&             ._:_.._:_.&     ._:_.................................",
"                                                                                                                                ",
"          ...    ..  ..   .. ..    ..   ..   ..   ....    ..        ...  ...     ..  ..    ..                                .. ",
"          ...    ..  ..  .......  ....  ..  ..    .  .    ..       ..      ..     ....     ..                               ..  ",
"          ...    ..  ..   .. ..  ....      ..      ..    ..       ..        ..   ......  ......          .....             ..   ",
"          ..             .......   ....   ..      .... .          ..        ..    ....     ..                             ..    ",
"                          .. ..   ....   ..  ..  ..  ..            ..      ..    ..  ..    ..      ..              ..    ..     ",
"          ..                       ..   ..   ..   .... .            ...  ...                       ..              ..           ",
"                                                                                                  ..                            ",
"                                                                                                                                ",
"  ....     ..     ....   .....   ..  ..  ......   .....  ......   ....    ....                      ..            ..      ....  ",
" ..  ..   ...    ..  ..      ..  ..  ..  ..      ..          ..  ..  ..  ..  ..   ..      ..       ..    .....     ..    ..  .. ",
" ..  ..    ..        ..   ....   ..  ..  .....   .....      ..    ....   ..  ..                   ..                ..      ..  ",
" ..  ..    ..     ....       ..  ......      ..  ..  ..    ..    ..  ..   .....                   ..     .....      ..     ..   ",
" ..  ..    ..    ..          ..      ..      ..  ..  ..   ..     ..  ..      ..   ..      ..       ..              ..           ",
"  ....    ....   ......  .....       ..  .....    ....    ..      ....    ....            ..        ..            ..       ..   ",
"                                                                                         ..                                     ",
"  ....                                                                                                                          ",
" .    .   ....   .....    .....  ....    ......  ......   .....  ..  ..   ....       ..  ..  ..  ..      .    .  ..  ..   ....  ",
".  .. .  ..  ..  ..  ..  ..      .. ..   ..      ..      ..      ..  ..    ..        ..  .. ..   ..      ..  ..  ... ..  ..  .. ",
". . . .  ..  ..  .....   ..      ..  ..  .....   .....   .. ...  ......    ..        ..  ....    ..      ......  ......  ..  .. ",
". . . .  ......  ..  ..  ..      ..  ..  ..      ..      ..  ..  ..  ..    ..    ..  ..  ....    ..      ......  .. ...  ..  .. ",
".  . .   ..  ..  ..  ..  ..      .. ..   ..      ..      ..  ..  ..  ..    ..    ..  ..  .. ..   ..      ..  ..  ..  ..  ..  .. ",
" .     . ..  ..  .....    .....  ....    ......  ..       .....  ..  ..   ....    ....   ..  ..  ......  ..  ..  ..  ..   ....  ",
"  .....                                                                                                                         ",
"                                                                                                                                ",
" .....    ....   .....    .....  ......  ..  ..  ..  ..  ..  ..  ..  ..  ..  ..  ......   ....            ....     ..           ",
" ..  ..  ..  ..  ..  ..  ..        ..    ..  ..  ..  ..  ..  ..   ....   ..  ..     ..    ..     ..         ..    ....          ",
" ..  ..  ..  ..  ..  ..   ....     ..    ..  ..  ..  ..  ......    ..     ....     ..     ..      ..        ..   ..  ..         ",
" .....   ... ..  .....       ..    ..    ..  ..  ..  ..  ......   ....     ..     ..      ..       ..       ..                  ",
" ..      .. ...  .. ..       ..    ..    ..  ..   ....   ..  ..  ..  ..    ..    ..       ..        ..      ..                  ",
" ..       ....   ..  ..   ....     ..     ....     ..    .    .  ..  ..    ..    ......   ....       ..   ....                  ",
"             ..                                                                                                         ........",
"  ..                                                                                                                            ",
"  ..             ..                 ..             ...           ..        ..            ..        ..                           ",
"   ..     .....  ..       .....     ..    ....    .. ..    ....  ..                 ..   ..        ..    . . .   ..  .    ....  ",
"         ..  ..  .....   ..       ....   ..  ..   ..      .. ..  .. ..     ..            .. ..     ..    ......  .. ...  ..  .. ",
"         ..  ..  ..  ..  ..      .. ..   ......  ....      ....  ... ..    ..       ..   ....      ..    ......  ......  ..  .. ",
"         ..  ..  ..  ..  ..      .. ..   ..       ..         ..  ..  ..    ..       ..   ....      ..    ..  ..  ..  ..  ..  .. ",
"          ... .  .....    .....   ... .   ....    ..      .. ..  ..  ..    ..    .. ..   .. ..     ..    ..  ..  ..  ..   ....  ",
"                                                           ...                    ...                                           ",
"                                                                                                   ..                   .....   ",
"                                   ..                                                       ..     ..     ..      ..  . ..<[^.  ",
" .. ..    ....   .. ..    .....    ..    .. ..   ..  ..  ..  ..  ..  ..  ..  ..  ......    ..      ..      ..    . ...  ..}<[^. ",
" ... ..  .. ..   ... ..  ..       ....   .. ..   ..  ..  ......   ....   ..  ..     ..    ...      ..      ...          ..>}<[^.",
" ..  ..  .. ..   ..  ..   ....     ..    .. ..   ..  ..  ......    ..     ....     ..     ...      ..      ...          ..>}<[^.",
" .....    ....   ..          ..    ..    .. ..    ....   ..  ..   ....     ..     ..       ..      ..      ..           ..}<[^. ",
" ..         ...  ..      .....      ..    ... .    ..    .    .  ..  ..   ..     ......     ..     ..     ..            ..<[^.  ",
" ..         ..                                                           ..                        ..                   .....   ",
"       ......     .||::__::|__.      ......      .__________&&.   ............    .       __$.   .............  .|||||||@@@&&@@@",
"     ..||||||.     .|||__:||_|.    ..____&&..     .________&&.     .@=====@$.     .       _=$.  .||||||||||||.| .|||||||@@&&&&@@",
"   ..|||||::|.      ..||::::::|.  .________&&.     ..____&&..     .@=======@$.    ._____   ^$.  .=|=|=|==|==@.:..|||||||@&&&&&&@",
"  ..|||::_&:|.        ..||:||:|. .__==______&&.      ..==$.       .^^^^^=^^=$.    ._____  ^^$.  .=|==|@=|@|=|.:..|||||||&&&&&&&&",
"..|||:|:___&|.          .|||:|:. ._==_______&&.       .==$.       .^^^^^=^=^$.    ._____   ^$.  .==|==@=|@|=|.:.........@@@&&@@@",
".|||::::|_&::|.          ..|||:..____________&&.      .==$.       .^^^^^=^^=$.    ._____   @$.  .=|==|@=|@|=|.:..|::::::@@@&&@@@",
".||:|:::::::||.            ..||..____________&&.      .==$.       .^^^^^=^==$.    .$@     @$$.  .=|==|@=|@|=|.:..|::::::@@@&&@@@",
" .||:::|::|::|.              ... .__________&&.       .....       .========_$.     ..........   .||||||||||||.:.=.......@@@&&@@@",
"|||||.:.   ..     ..    @@@&&@@@.||.  ....|.||:.&&&&&&@@    .:1$1:.=======.2| $$$ |2.======__&   ......=====||===|||||||=======|",
"|||||.:.  .||.   .||.   @@@&&@@@.:||..|::||.|.. &&&&&@@@   .::1$1::.=======.2     2.======_=__&   .==.=====|||==||@|@|@|=______&",
"|||||.:.  .:||...||:.   @@@&&@@@ ..|.|::::||.   &&&&@@@@  .:::1$1:::.=====.334444433.====_=____& .^^==.==|||::|=||@|@|@|=______&",
"|||||.:.   ..==|=...    @@@&&@@@   .||:::::|.   &&&&&@@@  .::|||||::.=====.=.44444.=.====______& .^^==.=||::&:|=||||||||=______&",
"......:.    .=.|.=.     &&&&&&&& ...|::::::|... &&@&&&@@ .::|=====|::.===...=^^^^^=...====____&  .===^.=||&::::|||||||||=______&",
":::::|:.    .||||||.    @&&&&&&@.|||.::::::|.||.&@@@&&&@ .:|=^=@=^=|:.===.=_.^^.^^..==.====__&   .__==.===||:&:|||||||||=______&",
"::::::|.    .||...|. .. @@&&&&@@.::|..::::..||:.@@@@@&&& .1|===@===|1.==.===_&=.=___&==.===@$@   .__=_.=====||::|::::::==______&",
"........ ..  .||.|.=.||.@@@&&@@@ ...  ....  ... @@@@@@&& .2|=$===$=|2.==.@@@@@@.@@@@@@@.===@$@    ....========||=||||||||&&&&&&&",
"@@@@@@@@@@@@@@@@@@@@@@@@@@@@@@@@@@@@@@@@@@@@@@@@@@@@@@@@@@@@@@@@@@@@@@@@@@@@@@@@@@@@@@@@@@@@@@@@@@@@@@@@@@@@@@@@@@@@@@@@@@@@@@@@",
"@@@@@@@@@@&&&@@@@&&@@&&@@@&&@&&@@@@&&@@@&&@@@&&@@@&&&&@@@@&&@@@@@@@@&&&@@&&&@@@@@&&@@&&@@@@&&@@@@@@@@@@@@@@@@@@@@@@@@@@@@@@@@&&@",
"@@@@@@@@@@&&&@@@@&&@@&&@@&&&&&&&@@&&&&@@&&@@&&@@@@&@&&@@@@&&@@@@@@@&&@@@@@@&&@@@@@&&&&@@@@@&&@@@@@@@@@@@@@@@@@@@@@@@@@@@@@@@&&@@",
"@@@@@@@@@@&&&@@@@&&@@&&@@@&&@&&@@&&&&@@@@@@&&@@@@@@&&@@@@&&@@@@@@@&&@@@@@@@@&&@@@&&&&&&@@&&&&&&@@@@@@@@@@&&&&&@@@@@@@@@@@@@&&@@@",
"@@@@@@@@@@&&@@@@@@@@@@@@@&&&&&&&@@@&&&&@@@&&@@@@@@&&&&&&@@@@@@@@@@&&@@@@@@@@&&@@@@&&&&@@@@@&&@@@@@@@@@@@@@@@@@@@@@@@@@@@@@&&@@@@",
"@@@@@@@@@@@@@@@@@@@@@@@@@@&&@&&@@@&&&&@@@&&@@&&@@&&@@&&@@@@@@@@@@@@&&@@@@@@&&@@@@&&@@&&@@@@&&@@@@@@&&@@@@@@@@@@@@@@&&@@@@&&@@@@@",
"@@@@@@@@@@&&@@@@@@@@@@@@@@@@@@@@@@@&&@@@&&@@@&&@@@&&&&&&@@@@@@@@@@@@&&&@@&&&@@@@@@@@@@@@@@@@@@@@@@@&&@@@@@@@@@@@@@@&&@@@@@@@@@@@",
"@@@@@@@@@@@@@@@@@@@@@@@@@@@@@@@@@@@@@@@@@@@@@@@@@@@@@@@@@@@@@@@@@@@@@@@@@@@@@@@@@@@@@@@@@@@@@@@@@@&&@@@@@@@@@@@@@@@@@@@@@@@@@@@@",
"@@@@@@@@@@@@@@@@@@@@@@@@@@@@@@@@@@@@@@@@@@@@@@@@@@@@@@@@@@@@@@@@@@@@@@@@@@@@@@@@@@@@@@@@@@@@@@@@@@@@@@@@@@@@@@@@@@@@@@@@@@@@@@@@",
"@@&&&&@@@@@&&@@@@@&&&&@@@&&&&&@@@&&@@&&@@&&&&&&@@@&&&&&@@&&&&&&@@@&&&&@@@@&&&&@@@@@@@@@@@@@@@@@@@@@@&&@@@@@@@@@@@@&&@@@@@@&&&&@@",
"@&&@@&&@@@&&&@@@@&&@@&&@@@@@@&&@@&&@@&&@@&&@@@@@@&&@@@@@@@@@@&&@@&&@@&&@@&&@@&&@@@&&@@@@@@&&@@@@@@@&&@@@@&&&&&@@@@@&&@@@@&&@@&&@",
"@&&@@&&@@@@&&@@@@@@@@&&@@@&&&&@@@&&@@&&@@&&&&&@@@&&&&&@@@@@@&&@@@@&&&&@@@&&@@&&@@@@@@@@@@@@@@@@@@@&&@@@@@@@@@@@@@@@@&&@@@@@@&&@@",
"@&&@@&&@@@@&&@@@@@&&&&@@@@@@@&&@@&&&&&&@@@@@@&&@@&&@@&&@@@@&&@@@@&&@@&&@@@&&&&&@@@@@@@@@@@@@@@@@@@&&@@@@@&&&&&@@@@@@&&@@@@@&&@@@",
"@&&@@&&@@@@&&@@@@&&@@@@@@@@@@&&@@@@@@&&@@@@@@&&@@&&@@&&@@@&&@@@@@&&@@&&@@@@@@&&@@@&&@@@@@@&&@@@@@@@&&@@@@@@@@@@@@@@&&@@@@@@@@@@@",
"@@&&&&@@@@&&&&@@@&&&&&&@@&&&&&@@@@@@@&&@@&&&&&@@@@&&&&@@@@&&@@@@@@&&&&@@@@&&&&@@@@@@@@@@@@&&@@@@@@@@&&@@@@@@@@@@@@&&@@@@@@@&&@@@",
"@@@@@@@@@@@@@@@@@@@@@@@@@@@@@@@@@@@@@@@@@@@@@@@@@@@@@@@@@@@@@@@@@@@@@@@@@@@@@@@@@@@@@@@@@&&@@@@@@@@@@@@@@@@@@@@@@@@@@@@@@@@@@@@@",
"@@&&&&@@@@@@@@@@@@@@@@@@@@@@@@@@@@@@@@@@@@@@@@@@@@@@@@@@@@@@@@@@@@@@@@@@@@@@@@@@@@@@@@@@@@@@@@@@@@@@@@@@@@@@@@@@@@@@@@@@@@@@@@@@",
"@&@@@@&@@@&&&&@@@&&&&&@@@@&&&&&@@&&&&@@@@&&&&&&@@&&&&&&@@@&&&&&@@&&@@&&@@@&&&&@@@@@@@&&@@&&@@&&@@&&@@@@@@&@@@@&@@&&@@&&@@@&&&&@@",
"&@@&&@&@@&&@@&&@@&&@@&&@@&&@@@@@@&&@&&@@@&&@@@@@@&&@@@@@@&&@@@@@@&&@@&&@@@@&&@@@@@@@@&&@@&&@&&@@@&&@@@@@@&&@@&&@@&&&@&&@@&&@@&&@",
"&@&@&@&@@&&@@&&@@&&&&&@@@&&@@@@@@&&@@&&@@&&&&&@@@&&&&&@@@&&@&&&@@&&&&&&@@@@&&@@@@@@@@&&@@&&&&@@@@&&@@@@@@&&&&&&@@&&&&&&@@&&@@&&@",
"&@&@&@&@@&&&&&&@@&&@@&&@@&&@@@@@@&&@@&&@@&&@@@@@@&&@@@@@@&&@@&&@@&&@@&&@@@@&&@@@@&&@@&&@@&&&&@@@@&&@@@@@@&&&&&&@@&&@&&&@@&&@@&&@",
"&@@&@&@@@&&@@&&@@&&@@&&@@&&@@@@@@&&@&&@@@&&@@@@@@&&@@@@@@&&@@&&@@&&@@&&@@@@&&@@@@&&@@&&@@&&@&&@@@&&@@@@@@&&@@&&@@&&@@&&@@&&@@&&@",
"@&@@@@@&@&&@@&&@@&&&&&@@@@&&&&&@@&&&&@@@@&&&&&&@@&&@@@@@@@&&&&&@@&&@@&&@@@&&&&@@@@&&&&@@@&&@@&&@@&&&&&&@@&&@@&&@@&&@@&&@@@&&&&@@",
"@@&&&&&@@@@@@@@@@@@@@@@@@@@@@@@@@@@@@@@@@@@@@@@@@@@@@@@@@@@@@@@@@@@@@@@@@@@@@@@@@@@@@@@@@@@@@@@@@@@@@@@@@@@@@@@@@@@@@@@@@@@@@@@@",
"@@@@@@@@@@@@@@@@@@@@@@@@@@@@@@@@@@@@@@@@@@@@@@@@@@@@@@@@@@@@@@@@@@@@@@@@@@@@@@@@@@@@@@@@@@@@@@@@@@@@@@@@@@@@@@@@@@@@@@@@@@@@@@@@",
"@&&&&&@@@@&&&&@@@&&&&&@@@@&&&&&@@&&&&&&@@&&@@&&@@&&@@&&@@&&@@&&@@&&@@&&@@&&@@&&@@&&&&&&@@@&&&&@@@@@@@@@@@@&&&&@@@@@&&@@@@@@@@@@@",
"@&&@@&&@@&&@@&&@@&&@@&&@@&&@@@@@@@@&&@@@@&&@@&&@@&&@@&&@@&&@@&&@@@&&&&@@@&&@@&&@@@@@&&@@@@&&@@@@@&&@@@@@@@@@&&@@@@&&&&@@@@@@@@@@",
"@&&@@&&@@&&@@&&@@&&@@&&@@@&&&&@@@@@&&@@@@&&@@&&@@&&@@&&@@&&&&&&@@@@&&@@@@@&&&&@@@@@&&@@@@@&&@@@@@@&&@@@@@@@@&&@@@&&@@&&@@@@@@@@@",
"@&&&&&@@@&&&@&&@@&&&&&@@@@@@@&&@@@@&&@@@@&&@@&&@@&&@@&&@@&&&&&&@@@&&&&@@@@@&&@@@@@&&@@@@@@&&@@@@@@@&&@@@@@@@&&@@@@@@@@@@@@@@@@@@",
"@&&@@@@@@&&@&&&@@&&@&&@@@@@@@&&@@@@&&@@@@&&@@&&@@@&&&&@@@&&@@&&@@&&@@&&@@@@&&@@@@&&@@@@@@@&&@@@@@@@@&&@@@@@@&&@@@@@@@@@@@@@@@@@@",
"@&&@@@@@@@&&&&@@@&&@@&&@@&&&&&@@@@@&&@@@@@&&&&@@@@@&&@@@@&@@@@&@@&&@@&&@@@@&&@@@@&&&&&&@@@&&&&@@@@@@@&&@@@&&&&@@@@@@@@@@@@@@@@@@",
"@@@@@@@@@@@@@&&@@@@@@@@@@@@@@@@@@@@@@@@@@@@@@@@@@@@@@@@@@@@@@@@@@@@@@@@@@@@@@@@@@@@@@@@@@@@@@@@@@@@@@@@@@@@@@@@@@@@@@@@@&&&&&&&&",
"@@&&@@@@@@@@@@@@@@@@@@@@@@@@@@@@@@@@@@@@@@@@@@@@@@@@@@@@@@@@@@@@@@@@@@@@@@@@@@@@@@@@@@@@@@@@@@@@@@@@@@@@@@@@@@@@@@@@@@@@@@@@@@@@",
"@@&&@@@@@@@@@@@@@&&@@@@@@@@@@@@@@@@@&&@@@@@@@@@@@@@&&&@@@@@@@@@@@&&@@@@@@@@&&@@@@@@@@@@@@&&@@@@@@@@&&@@@@@@@@@@@@@@@@@@@@@@@@@@@",
"@@@&&@@@@@&&&&&@@&&@@@@@@@&&&&&@@@@@&&@@@@&&&&@@@@&&@&&@@@@&&&&@@&&@@@@@@@@@@@@@@@@@&&@@@&&@@@@@@@@&&@@@@&@&@&@@@&&@@&@@@@&&&&@@",
"@@@@@@@@@&&@@&&@@&&&&&@@@&&@@@@@@@&&&&@@@&&@@&&@@@&&@@@@@@&&@&&@@&&@&&@@@@@&&@@@@@@@@@@@@&&@&&@@@@@&&@@@@&&&&&&@@&&@&&&@@&&@@&&@",
"@@@@@@@@@&&@@&&@@&&@@&&@@&&@@@@@@&&@&&@@@&&&&&&@@&&&&@@@@@@&&&&@@&&&@&&@@@@&&@@@@@@@&&@@@&&&&@@@@@@&&@@@@&&&&&&@@&&&&&&@@&&@@&&@",
"@@@@@@@@@&&@@&&@@&&@@&&@@&&@@@@@@&&@&&@@@&&@@@@@@@&&@@@@@@@@@&&@@&&@@&&@@@@&&@@@@@@@&&@@@&&&&@@@@@@&&@@@@&&@@&&@@&&@@&&@@&&@@&&@",
"@@@@@@@@@@&&&@&@@&&&&&@@@@&&&&&@@@&&&@&@@@&&&&@@@@&&@@@@@@&&@&&@@&&@@&&@@@@&&@@@@&&@&&@@@&&@&&@@@@@&&@@@@&&@@&&@@&&@@&&@@@&&&&@@",
"@@@@@@@@@@@@@@@@@@@@@@@@@@@@@@@@@@@@@@@@@@@@@@@@@@@@@@@@@@@&&&@@@@@@@@@@@@@@@@@@@@&&&@@@@@@@@@@@@@@@@@@@@@@@@@@@@@@@@@@@@@@@@@@@",
"@@@@@@@@@@@@@@@@@@@@@@@@@@@@@@@@@@@@@@@@@@@@@@@@@@@@@@@@@@@@@@@@@@@@@@@@@@@@@@@@@@@@@@@@@@@@@@@@@@@&&@@@@@@@@@@@@@@@@@@@&&&&&@@@",
"@@@@@@@@@@@@@@@@@@@@@@@@@@@@@@@@@@@&&@@@@@@@@@@@@@@@@@@@@@@@@@@@@@@@@@@@@@@@@@@@@@@@@@@@@@@@&&@@@@@&&@@@@@&&@@@@@@&&@@&@&&=&&&@@",
"@&&@&&@@@@&&&&@@@&&@&&@@@@&&&&&@@@@&&@@@@&&@&&@@@&&@@&&@@&&@@&&@@&&@@&&@@&&@@&&@@&&&&&&@@@@&&@@@@@@&&@@@@@@&&@@@@&@&&&@@&&&=&&&@",
"@&&&@&&@@&&@&&@@@&&&@&&@@&&@@@@@@@&&&&@@@&&@&&@@@&&@@&&@@&&&&&&@@@&&&&@@@&&@@&&@@@@@&&@@@@&&&@@@@@@&&@@@@@@&&&@@@@@@@@@@@&&&=&&&",
"@&&@@&&@@&&@&&@@@&&@@&&@@@&&&&@@@@@&&@@@@&&@&&@@@&&@@&&@@&&&&&&@@@@&&@@@@@&&&&@@@@@&&@@@@@&&&@@@@@@&&@@@@@@&&&@@@@@@@@@@@&&&=&&&",
"@&&&&&@@@@&&&&@@@&&@@@@@@@@@@&&@@@@&&@@@@&&@&&@@@@&&&&@@@&&@@&&@@@&&&&@@@@@&&@@@@@&&@@@@@@@&&@@@@@@&&@@@@@@&&@@@@@@@@@@@&&&=&&&@",
"@&&@@@@@@@@@&&&@@&&@@@@@@&&&&&@@@@@@&&@@@@&&&@&@@@@&&@@@@&@@@@&@@&&@@&&@@@&&@@@@@&&&&&&@@@@@&&@@@@@&&@@@@@&&@@@@@@@@@@@@&&=&&&@@",
"@&&@@@@@@@@@&&@@@@@@@@@@@@@@@@@@@@@@@@@@@@@@@@@@@@@@@@@@@@@@@@@@@@@@@@@@@&&@@@@@@@@@@@@@@@@@@@@@@@@&&@@@@@@@@@@@@@@@@@@@&&&&&@@@"};
